<?xml version="1.0" standalone="no"?>
<!DOCTYPE svg PUBLIC "-//W3C//DTD SVG 20010904//EN"
 "http://www.w3.org/TR/2001/REC-SVG-20010904/DTD/svg10.dtd">
<svg version="1.0" xmlns="http://www.w3.org/2000/svg"
 width="1024.000000pt" height="1024.000000pt" viewBox="0 0 1024.000000 1024.000000"
 preserveAspectRatio="xMidYMid meet">

<g transform="translate(0.000000,1024.000000) scale(0.100000,-0.100000)"
fill="#000000" stroke="none">
<path d="M4285 7420 c-167 -7 -208 -14 -339 -56 -218 -70 -430 -222 -569 -409
-89 -119 -146 -245 -195 -424 l-26 -96 -3 -874 c-3 -784 -2 -884 13 -960 37
-192 130 -417 225 -544 55 -74 174 -188 264 -255 124 -92 313 -170 490 -204
97 -18 1797 -20 1912 -2 401 64 771 338 924 686 18 40 50 143 72 228 l41 155
4 798 c3 688 1 813 -13 912 -40 287 -139 495 -330 693 -134 140 -319 256 -485
304 -174 50 -193 51 -1035 53 -434 1 -862 -1 -950 -5z m358 -793 c47 -22 365
-214 457 -277 48 -34 336 -217 425 -272 186 -114 402 -257 444 -294 101 -89
133 -181 111 -318 -20 -123 -67 -182 -230 -283 -52 -33 -181 -116 -286 -185
-193 -127 -259 -169 -644 -408 -350 -219 -412 -243 -520 -204 -107 38 -171
126 -189 259 -6 40 -11 442 -12 940 -1 864 -1 870 20 926 26 68 50 92 127 124
82 34 212 31 297 -8z"/>
<path d="M4564 6169 c-18 -20 -18 -45 -16 -617 3 -546 5 -599 20 -621 33 -46
55 -45 155 8 51 26 127 71 169 99 43 29 80 52 83 52 4 0 25 13 48 29 23 16 82
52 131 81 50 29 108 67 131 84 22 17 85 56 140 86 107 60 205 141 205 171 0
35 -61 88 -198 170 -75 46 -202 123 -282 172 -80 49 -179 110 -220 135 -72 43
-111 66 -229 139 -64 38 -109 43 -137 12z"/>
</g>
</svg>
